<svg xmlns="http://www.w3.org/2000/svg" xmlns:svg="http://www.w3.org/2000/svg" id="svg8" width="210mm" height="297mm" version="1.1" viewBox="0 0 210 297"><metadata id="metadata5"/><g id="layer1"><path id="rect4499" fill="#28170b" fill-opacity="1" stroke="#fff" stroke-dasharray="none" stroke-dashoffset="0" stroke-linecap="round" stroke-linejoin="round" stroke-miterlimit="4" stroke-opacity="1" stroke-width="0" d="m 73.462393,27.260354 c -1.058834,0 -1.911133,0.838836 -1.911133,1.880193 V 97.43632 c 0,1.04135 0.852299,1.87958 1.911133,1.87958 h 72.235637 c 1.05885,0 1.91114,-0.83823 1.91114,-1.87958 V 29.140547 c 0,-1.041357 -0.85229,-1.880193 -1.91114,-1.880193 z m 61.723487,2.97657 h 7.32674 c 1.14705,0 2.07002,0.908338 2.07002,2.036472 v 1.87959 c 0,1.128137 -0.92297,2.036475 -2.07002,2.036475 h -7.32674 c -1.14707,0 -2.07065,-0.908338 -2.07065,-2.036475 v -1.87959 c 0,-1.128134 0.92358,-2.036472 2.07065,-2.036472 z m 0,9.904944 h 7.32674 c 1.14705,0 2.07002,0.908337 2.07002,2.036472 v 1.87959 c 0,1.128135 -0.92297,2.036475 -2.07002,2.036475 h -7.32674 c -1.14707,0 -2.07065,-0.90834 -2.07065,-2.036475 v -1.87959 c 0,-1.128135 0.92358,-2.036472 2.07065,-2.036472 z m 0,9.905548 h 7.32674 c 1.14705,0 2.07002,0.908338 2.07002,2.036474 v 1.879587 c 0,1.128141 -0.92297,2.036475 -2.07002,2.036475 h -7.32674 c -1.14707,0 -2.07065,-0.908334 -2.07065,-2.036475 V 52.08389 c 0,-1.128136 0.92358,-2.036474 2.07065,-2.036474 z m 0,9.904946 h 7.32674 c 1.14705,0 2.07002,0.908333 2.07002,2.036472 v 1.879586 c 0,1.12815 -0.92297,2.03648 -2.07002,2.03648 h -7.32674 c -1.14707,0 -2.07065,-0.90833 -2.07065,-2.03648 v -1.879586 c 0,-1.128139 0.92358,-2.036472 2.07065,-2.036472 z m 0,9.905548 h 7.32674 c 1.14705,0 2.07002,0.90772 2.07002,2.03586 v 1.8802 c 0,1.12812 -0.92297,2.03586 -2.07002,2.03586 h -7.32674 c -1.14707,0 -2.07065,-0.90774 -2.07065,-2.03586 v -1.8802 c 0,-1.12814 0.92358,-2.03586 2.07065,-2.03586 z m 0,9.90493 h 7.32674 c 1.14705,0 2.07002,0.90834 2.07002,2.03648 v 1.87959 c 0,1.12813 -0.92297,2.03647 -2.07002,2.03647 h -7.32674 c -1.14707,0 -2.07065,-0.90834 -2.07065,-2.03647 v -1.87959 c 0,-1.12814 0.92358,-2.03648 2.07065,-2.03648 z m 0,9.90554 h 7.32674 c 1.14705,0 2.07002,0.90774 2.07002,2.03589 v 1.88018 c 0,1.12813 -0.92297,2.03587 -2.07002,2.03587 h -7.32674 c -1.14707,0 -2.07065,-0.90774 -2.07065,-2.03587 v -1.88018 c 0,-1.12815 0.92358,-2.03589 2.07065,-2.03589 z" opacity="1" paint-order="normal"/><text id="text4685" x="75.435" y="96.327" fill="#000" fill-opacity="1" stroke="none" stroke-width=".265" font-family="sans-serif" font-size="10.583" font-style="normal" font-weight="normal" letter-spacing="0" word-spacing="0" xml:space="preserve" style="line-height:1.25"><tspan font-size="50.8" style="-inkscape-font-specification:'Showcard Gothic'" id="tspan4683" x="75.435" y="96.327" fill="#fff" stroke-width=".265" dx="0" font-family="Showcard Gothic" font-stretch="normal" font-style="normal" font-variant="normal" font-weight="normal" letter-spacing="3.649" word-spacing="0">IT</tspan></text><text id="text4689" x="52.367" y="151.557" fill="#28170b" fill-opacity="1" stroke="none" stroke-width=".265" font-family="sans-serif" font-size="24.647" font-style="normal" font-weight="normal" letter-spacing="0" transform="scale(1.3590299,0.73581899)" word-spacing="0" xml:space="preserve" style="line-height:1.25"><tspan id="tspan4687" x="52.367" y="151.557" fill="#28170b" stroke-width=".265" font-family="Tw Cen MT" font-stretch="normal" font-style="normal" font-variant="normal" font-weight="normal" style="-inkscape-font-specification:'Tw Cen MT'">FILMS</tspan></text><g id="g4721" transform="translate(11.427064,-31.48273)"><g id="g4733"><path id="path4702" fill="#fff" fill-opacity="1" stroke="#fff" stroke-dasharray="none" stroke-dashoffset="0" stroke-linecap="round" stroke-linejoin="round" stroke-miterlimit="4" stroke-opacity="1" stroke-width="0" d="m 78.042666,74.375799 a 2.6726952,2.6726952 0 0 1 -2.681161,2.661362 2.6726952,2.6726952 0 0 1 -2.664199,-2.678342 2.6726952,2.6726952 0 0 1 2.675519,-2.667034 2.6726952,2.6726952 0 0 1 2.669865,2.672694" opacity="1" paint-order="normal"/><g id="g4727"><path id="path4710" fill="none" stroke="#fff" stroke-dasharray="none" stroke-linecap="round" stroke-linejoin="miter" stroke-miterlimit="4" stroke-opacity="1" stroke-width="2.665" d="m 75.236371,79.30897 v 8.686257 l 8.95353,0.133637 1.469983,10.557146"/><path id="path4714" fill="none" stroke="#fff" stroke-dasharray="none" stroke-linecap="round" stroke-linejoin="miter" stroke-miterlimit="4" stroke-opacity="1" stroke-width="2.065" d="m 75.236371,80.89647 4.276312,3.223349 5.593667,-0.133633"/></g></g><path id="path4723" fill="none" stroke="#fff" stroke-dasharray="none" stroke-linecap="round" stroke-linejoin="miter" stroke-miterlimit="4" stroke-opacity="1" stroke-width="2.665" d="m 89.681567,86.766956 h 10.961313 l 5.85863,-9.260416"/></g></g></svg>